<?xml version="1.0" encoding="UTF-8" standalone="no"?>
<!-- Created with Inkscape (http://www.inkscape.org/) -->

<svg
   xmlns:dc="http://purl.org/dc/elements/1.1/"
   xmlns:cc="http://creativecommons.org/ns#"
   xmlns:rdf="http://www.w3.org/1999/02/22-rdf-syntax-ns#"
   xmlns:svg="http://www.w3.org/2000/svg"
   xmlns="http://www.w3.org/2000/svg"
   xmlns:sodipodi="http://sodipodi.sourceforge.net/DTD/sodipodi-0.dtd"
   xmlns:inkscape="http://www.inkscape.org/namespaces/inkscape"
   width="396"
   height="394"
   viewBox="0 0 396 394.00001"
   id="svg4349"
   version="1.1"
   inkscape:version="0.91 r13725"
   sodipodi:docname="yatpic_a.svg">
  <defs
     id="defs4351">
    <inkscape:path-effect
       effect="spiro"
       id="path-effect4328"
       is_visible="true" />
    <inkscape:path-effect
       effect="spiro"
       id="path-effect4300"
       is_visible="true" />
    <inkscape:path-effect
       effect="spiro"
       id="path-effect4183-3"
       is_visible="true" />
    <inkscape:path-effect
       effect="spiro"
       id="path-effect4183"
       is_visible="true" />
  </defs>
  <sodipodi:namedview
     id="base"
     pagecolor="#ffffff"
     bordercolor="#666666"
     borderopacity="1.0"
     inkscape:pageopacity="0.0"
     inkscape:pageshadow="2"
     inkscape:zoom="0.98994949"
     inkscape:cx="317.46528"
     inkscape:cy="190.6091"
     inkscape:document-units="px"
     inkscape:current-layer="layer1"
     showgrid="false"
     inkscape:snap-page="true"
     showguides="true"
     inkscape:guide-bbox="true"
     inkscape:snap-to-guides="false"
     inkscape:snap-grids="false"
     inkscape:window-width="1920"
     inkscape:window-height="1058"
     inkscape:window-x="-8"
     inkscape:window-y="-8"
     inkscape:window-maximized="1"
     units="px">
    <sodipodi:guide
       position="19.642857,1052.3622"
       orientation="0,1"
       id="guide4923" />
    <sodipodi:guide
       position="0,988.92859"
       orientation="1,0"
       id="guide4925" />
  </sodipodi:namedview>
  <metadata
     id="metadata4354">
    <rdf:RDF>
      <cc:Work
         rdf:about="">
        <dc:format>image/svg+xml</dc:format>
        <dc:type
           rdf:resource="http://purl.org/dc/dcmitype/StillImage" />
        <dc:title></dc:title>
      </cc:Work>
    </rdf:RDF>
  </metadata>
  <g
     inkscape:label="Layer 1"
     inkscape:groupmode="layer"
     id="layer1"
     transform="translate(0,-658.36216)">
    <g
       id="g4938"
       transform="translate(-4.2440746,657.72206)">
      <ellipse
         ry="197"
         rx="198"
         cy="197.64009"
         cx="202.24408"
         id="path4163"
         style="display:inline;opacity:1;fill:#ffd42a;fill-opacity:1;stroke:#ff9900;stroke-width:0;stroke-miterlimit:4;stroke-dasharray:none;stroke-opacity:1" />
      <path
         inkscape:connector-curvature="0"
         inkscape:original-d="m 68.136962,122.96151 c 44.499998,-97.249991 122.499998,-24.249986 124.499998,-9.5 2,14.75 4.25,37 -2.5,48.25 -6.75,11.25 -25.25,29.25 -45,28.5 -19.75,-0.75 -47.749997,-22 -48.749997,-29.25 -1,-7.25 -1.75,-25.25 3.749997,-34.75 5.5,-9.5 15.25,-19.75 27,-23 11.75,-3.249986 41.5,5 41.5,5 0,0 -6.75,-10.749986 -11.75,-12.499986 -5,-1.75 -40.75,-22.000005 -64.750001,3 C 68.136962,123.71151 68.136962,122.96151 68.136962,122.96151 Z"
         inkscape:path-effect="#path-effect4183"
         id="path4181"
         d="m 68.136962,122.96151 c 2.892453,-13.63678 10.30456,-26.275147 20.794291,-35.4563 10.48973,-9.181153 23.998547,-14.853856 37.898297,-15.914479 13.89975,-1.060624 28.11287,2.49675 39.87419,9.980032 11.76131,7.483282 21.00519,18.850717 25.93322,31.890747 5.87143,15.53634 5.3982,33.63939 -2.5,48.25 -4.404,8.14681 -10.99133,15.08302 -18.83673,20.00394 -7.8454,4.92091 -16.92649,7.82697 -26.16327,8.49606 -10.17504,0.73706 -20.6283,-1.2805 -29.48706,-6.33985 -8.85876,-5.05934 -16.022204,-13.23687 -19.262937,-22.91015 -3.80774,-11.36574 -1.996293,-24.23054 3.749997,-34.75 5.79839,-10.61485 15.56902,-19.04664 27,-23 13.62922,-4.713619 29.38036,-2.81589 41.5,5 -3.04295,-4.8857 -7.06167,-9.160938 -11.75,-12.499986 -9.35675,-6.66392 -21.2188,-9.416088 -32.67299,-8.545442 -11.45419,0.870647 -22.49275,5.213102 -32.077011,11.545442 -9.556684,6.314126 -17.785239,14.628386 -23.999997,24.249986 z"
         style="display:inline;opacity:1;fill:#000000;fill-opacity:1;fill-rule:evenodd;stroke:#000000;stroke-width:1px;stroke-linecap:butt;stroke-linejoin:miter;stroke-opacity:1" />
      <path
         sodipodi:nodetypes="csssssscssc"
         inkscape:connector-curvature="0"
         inkscape:original-d="m 360.54868,154.37831 c -44.5,-97.249991 -122.5,-24.25 -124.5,-9.5 -2,14.75 -4.25,37 2.5,48.25 6.75,11.25 25.25,29.25 45,28.5 19.75,-0.75 47.75,-22 48.75,-29.25 1,-7.25 1.75,-25.25 -3.75,-34.75 -5.5,-9.5 -15.25,-19.75 -27,-23 -11.75,-3.25 -28.25,2.5 -28.25,2.5 0,0 -2.20385,-4.25879 3,-5.25 5.25,-1 36.25,-26.75 60.25,-1.75 24,25 24,24.25 24,24.25 z"
         inkscape:path-effect="#path-effect4183-3"
         id="path4181-4"
         d="m 360.54868,154.37831 c -2.89479,-13.63497 -10.30791,-26.27093 -20.79755,-35.45023 -10.48964,-9.1793 -23.99728,-14.85076 -37.89575,-15.91128 -13.89847,-1.06053 -28.11024,2.49579 -39.87118,9.97726 -11.76094,7.48147 -21.00546,18.84636 -25.93552,31.88425 -5.87464,15.53588 -5.40425,33.64186 2.5,48.25 4.40653,8.14388 10.99731,15.07463 18.84268,19.993 7.84538,4.91838 16.92283,7.82545 26.15732,8.507 10.18154,0.75145 20.64824,-1.24343 29.51764,-6.29934 8.86939,-5.05591 16.03768,-13.25414 19.23236,-22.95066 3.74601,-11.36994 1.83999,-24.16416 -3.75,-34.75 -5.67186,-10.74088 -15.33554,-19.61224 -27,-23 -9.28989,-2.6981 -19.57831,-1.78762 -28.25,2.5 0.80876,-1.8504 1.81641,-3.61379 3,-5.25 3.26521,-4.51387 7.86061,-8.00863 12.98169,-10.20207 5.12107,-2.19343 10.75219,-3.10769 16.32017,-2.92283 11.13596,0.36973 21.77026,5.05723 30.94814,11.3749 9.42314,6.48649 17.6115,14.76015 24,24.25 z"
         style="display:inline;opacity:1;fill:#000000;fill-opacity:1;fill-rule:evenodd;stroke:#000000;stroke-width:1px;stroke-linecap:butt;stroke-linejoin:miter;stroke-opacity:1" />
      <ellipse
         transform="matrix(0.97941278,0.20186781,-0.20186781,0.97941278,0,0)"
         ry="20"
         rx="52.75"
         cy="192.55063"
         cx="354.81134"
         id="path4281"
         style="display:inline;opacity:1;fill:#ff2a2a;fill-opacity:1;stroke:#ff9900;stroke-width:0;stroke-miterlimit:4;stroke-dasharray:none;stroke-opacity:1" />
      <ellipse
         transform="matrix(0.97941278,0.20186781,-0.20186781,0.97941278,0,0)"
         ry="20"
         rx="52.75"
         cy="192.69742"
         cx="112.60456"
         id="path4281-1"
         style="display:inline;opacity:1;fill:#ff2a2a;fill-opacity:1;stroke:#ff9900;stroke-width:0;stroke-miterlimit:4;stroke-dasharray:none;stroke-opacity:1" />
      <path
         inkscape:connector-curvature="0"
         inkscape:original-d="m 178.88696,264.71151 c -38,22.5 -38,22.5 -38,22.5 l 40.5,44.5 0,0"
         inkscape:path-effect="#path-effect4300"
         id="path4298"
         d="m 178.88696,264.71151 -38,22.5 40.5,44.5 0,0"
         style="display:inline;opacity:1;fill:none;fill-rule:evenodd;stroke:#000000;stroke-width:12;stroke-linecap:butt;stroke-linejoin:miter;stroke-miterlimit:4;stroke-dasharray:none;stroke-opacity:1" />
      <path
         sodipodi:nodetypes="csssc"
         inkscape:connector-curvature="0"
         inkscape:original-d="m 135.75308,44.686839 c 51.5,-23 54.1538,-33.733126 57.4038,-29.23313 3.25,4.5 27.42085,-2.69751 25.56371,17.37393 -1.82239,19.69592 -402.4925,482.915241 -40.47614,9.43673 6.37942,-8.34359 -58.49137,23.42247 -42.49137,2.42247 z"
         inkscape:path-effect="#path-effect4328"
         id="path4326"
         d="m 135.75308,44.686839 c 13.66402,-17.455238 35.25036,-28.448174 57.4038,-29.23313 5.847,-0.207175 11.92486,0.320147 17.0469,3.147702 2.56102,1.413777 4.83356,3.399933 6.39753,5.872099 1.56396,2.472166 2.39152,5.441489 2.11928,8.354129 -0.36917,3.94968 -2.7549,7.557286 -5.9729,9.876917 -3.21801,2.31963 -7.19509,3.43337 -11.15528,3.663931 -7.92038,0.461121 -15.59654,-2.412794 -23.34796,-4.104118 -14.03279,-3.061892 -28.89749,-2.214442 -42.49137,2.42247 z"
         style="display:inline;opacity:1;fill:#ffffff;fill-opacity:1;fill-rule:evenodd;stroke:none;stroke-width:1px;stroke-linecap:butt;stroke-linejoin:miter;stroke-opacity:1" />
    </g>
  </g>
</svg>
